<?xml version="1.0" encoding="utf-8"?>
<!-- Generator: Adobe Illustrator 16.0.0, SVG Export Plug-In . SVG Version: 6.00 Build 0)  -->
<!DOCTYPE svg PUBLIC "-//W3C//DTD SVG 1.1//EN" "http://www.w3.org/Graphics/SVG/1.1/DTD/svg11.dtd">
<svg version="1.1" id="Layer_1" xmlns="http://www.w3.org/2000/svg" xmlns:xlink="http://www.w3.org/1999/xlink" x="0px" y="0px"
	 width="313px" height="67.7px" viewBox="0 0 313 67.7" enable-background="new 0 0 313 67.7" xml:space="preserve">
<g>
	<path fill="#FFFFFF" d="M71.1,60.8c-12.1,0-21.9-9.5-21.9-21.5c0-12.1,9.5-21.5,21.6-21.5c9.3,0,17.5,5.3,20.6,14.7H80.4
		c-2-3.8-5.1-5.6-9.5-5.6c-6.8,0-11.7,5.2-11.7,12.4c0,7.2,5.1,12.5,11.9,12.5c4.1,0,6.9-1.6,9.3-5.4h11.1
		C88.1,55.5,80.7,60.8,71.1,60.8z"/>
	<path fill="#FFFFFF" d="M122.8,59.8v-3.9c-3.7,3.6-6.8,4.9-11.8,4.9c-9.5,0-15.6-5.6-15.6-20v-22h9.8v20.1c0,10.9,3,12.9,7.8,12.9
		c3.3,0,6-1.4,7.5-3.8c1.1-1.9,1.6-4.4,1.6-9.8V18.8h9.8v41H122.8z"/>
	<path fill="#FFFFFF" d="M146.7,37v22.8h-9.8v-41h9v4c2.6-3.8,4.7-5,8.9-5h0.7v9.5C149.5,27.5,146.7,30.7,146.7,37z"/>
	<path fill="#FFFFFF" d="M170,60.8c-8.1,0-14-4.4-15-14h9.9c1,3.5,2.6,5,5.5,5c2.5,0,4.4-1.7,4.4-4c0-2.4-0.4-3-7-5.3
		c-8.1-2.7-11.4-6.1-11.4-12.1c0-7,6-12.5,13.6-12.5c7,0,13.1,4.6,13.5,12.3h-9.6c-0.4-2.1-1.8-3.3-3.8-3.3c-2.1,0-3.8,1.5-3.8,3.5
		c0,2.1,0.2,2.3,7,4.4c8.6,2.7,11.4,5.9,11.4,12C184.6,54.6,178.2,60.8,170,60.8z"/>
	<path fill="#FFFFFF" d="M219.6,59.8v-5.3c-3.9,4.4-7.8,6.3-13.6,6.3c-12,0-20.6-9-20.6-21.3c0-12.5,8.7-21.6,20.9-21.6
		c5.9,0,10,1.9,13.4,6.4v-5.5h9v41H219.6z M207.3,26.9c-7,0-12,5.3-12,12.8c0,7.2,5,12.1,12.1,12.1c7.5,0,11.9-5.3,11.9-12.1
		C219.3,32.1,214.3,26.9,207.3,26.9z"/>
	<path fill="#FFFFFF" d="M242.9,37v22.8H233v-41h9v4c2.6-3.8,4.7-5,8.9-5h0.7v9.5C245.7,27.5,242.9,30.7,242.9,37z"/>
	<path fill="#FFFFFF" d="M253.7,59.8v-41h9.8v41H253.7z M253.8,12.9V3h9.8v9.8H253.8z"/>
	<path fill="#FFFFFF" d="M301,59.8v-5.3c-3.9,4.4-7.8,6.3-13.6,6.3c-12,0-20.6-9-20.6-21.3c0-12.5,8.7-21.6,20.9-21.6
		c5.9,0,10,1.9,13.4,6.4v-5.5h9v41H301z M288.7,26.9c-7,0-12,5.3-12,12.8c0,7.2,5,12.1,12.1,12.1c7.5,0,11.9-5.3,11.9-12.1
		C300.7,32.1,295.7,26.9,288.7,26.9z"/>
</g>
<g transform="translate(0 -1028.4)">
	<path fill="#7F8C8D" d="M30.7,1085.7c0.5,3.6-1.3,6.8-4.2,7.3c-2.9,0.4-5.6-2.1-6.2-5.7c-0.5-3.6,1.3-6.8,4.2-7.3
		C27.4,1079.6,30.2,1082.2,30.7,1085.7z"/>
	<path fill="#F29D1F" d="M18.2,1038.5c-10,1.5-16.9,11.1-15.3,21.4c1.2,8,10.4,14.1,13.5,18.7c3,4.3,2,13,2,13l7.6-2.5l8,0.1
		c0,0-3.5-8-2-13c1.5-5.3,8.5-13.8,7.3-21.8C37.6,1044.1,28.3,1037,18.2,1038.5z"/>
	<path fill="#F0C419" d="M18.2,1038.5c10-1.5,19.4,5.5,21,15.9c1.2,8-5.8,16.5-7.3,21.8c-1.6,5,2,13,2,13l-8-0.1L18.2,1038.5z"/>
	<path fill="#E57E25" d="M12.8,1055.3l-2.2,3l15.1,29.6l5.6-32.7l-3-2.2l-2.2,3l-3-2.2l-2.2,3l-3-2.2l-2.2,3L12.8,1055.3z
		 M13.2,1057.9l3,2.2l1.1-1.5l1.1-1.5l1.5,1.1l1.5,1.1l1.1-1.5l1.1-1.5l1.5,1.1l1.5,1.1l2.2-3l1.3,0.9l-4.9,28.1l-13-25.4
		L13.2,1057.9z"/>
	
		<rect x="17.2" y="1077.4" transform="matrix(-0.9887 0.1502 -0.1502 -0.9887 212.734 2151.7949)" fill="#BDC3C7" width="15.7" height="13.1"/>
	<path fill="#95A5A6" d="M16.3,1078.6l2,13l7.8-1.2l-0.4-2.6l7.8-1.2l-0.4-2.6l-7.8,1.2l-0.4-2.6l7.8-1.2l-0.4-2.6l-7.8,1.2
		l-0.4-2.6L16.3,1078.6z"/>
	<path fill="#7F8C8D" d="M16.7,1081.2l0.4,2.6l7.8-1.2l-0.4-2.6L16.7,1081.2z M17.5,1086.4l0.4,2.6l7.8-1.2l-0.4-2.6L17.5,1086.4z"
		/>
</g>
</svg>
